<?xml version="1.0" standalone="no"?>
<!DOCTYPE svg PUBLIC "-//W3C//DTD SVG 20010904//EN"
 "http://www.w3.org/TR/2001/REC-SVG-20010904/DTD/svg10.dtd">
<svg version="1.0" xmlns="http://www.w3.org/2000/svg"
 width="96.000000pt" height="96.000000pt" viewBox="0 0 96.000000 96.000000"
 preserveAspectRatio="xMidYMid meet">
<metadata>
Created by potrace 1.16, written by Peter Selinger 2001-2019
</metadata>
<g transform="translate(0.000000,96.000000) scale(0.100000,-0.100000)"
fill="#000000" stroke="none">
<path d="M155 950 c-11 -4 -31 -20 -45 -35 l-25 -27 0 -409 0 -409 33 -32 32
-33 365 -3 365 -3 0 401 0 400 -80 0 -80 0 0 -157 0 -157 -40 39 -40 39 -40
-39 -40 -39 0 157 0 157 -181 2 c-161 3 -183 5 -193 21 -8 12 -8 22 0 35 10
16 40 17 353 20 l341 2 0 40 0 40 -352 -1 c-194 0 -362 -4 -373 -9z"/>
</g>
</svg>
